/vscmnt/brussel_pixiu_data/_data_brussel/112/vsc11236/PredSimResults/SUBJ06mtu3D/worker5.mot
version=1
nRows=8
nColumns=50
inDegrees=yes
endheader
                time	         pelvis_tilt	         pelvis_list	     pelvis_rotation	           pelvis_tx	           pelvis_ty	           pelvis_tz	       hip_flexion_r	     hip_adduction_r	      hip_rotation_r	        knee_angle_r	       ankle_angle_r	         mtp_angle_r	       hip_flexion_l	     hip_adduction_l	      hip_rotation_l	        knee_angle_l	       ankle_angle_l	         mtp_angle_l	    lumbar_extension	      lumbar_bending	     lumbar_rotation	 ercspn_r/activation	 intobl_r/activation	 extobl_r/activation	    abd_r/activation	    add_r/activation	hamstrings_r/activation	bifemsh_r/activation	glut_max_r/activation	iliopsoas_r/activation	rect_fem_r/activation	  vasti_r/activation	gastroc_r/activation	 soleus_r/activation	tib_ant_r/activation	 ercspn_l/activation	 intobl_l/activation	 extobl_l/activation	    abd_l/activation	    add_l/activation	hamstrings_l/activation	bifemsh_l/activation	glut_max_l/activation	iliopsoas_l/activation	rect_fem_l/activation	  vasti_l/activation	gastroc_l/activation	 soleus_l/activation	tib_ant_l/activation	
          0.00000000	         -5.32733463	         -1.27846430	          5.53652153	          0.00000000	          0.93222125	         -0.01143501	         31.85348517	         -1.15887845	         -8.99511279	         -9.86694407	          0.12372012	          0.22133625	        -10.77197491	         -1.39444986	         -7.72394238	        -11.16190588	          8.29419499	         33.04639138	         -5.82403173	         -0.06328760	         -7.80142359	          0.18353755	          0.18364119	          0.00999999	          0.00999999	          0.32085830	          0.05198231	          0.06279288	          0.01831711	          0.12105985	          0.01157520	          0.01023819	          0.01000000	          0.00999999	          0.50095664	          0.13027188	          0.00999999	          0.00999999	          0.07596154	          0.01000000	          0.01000000	          0.20215489	          0.01585340	          0.47413110	          0.02539781	          0.00999999	          0.23356462	          0.35732888	          0.02107840	
          0.01229542	         -5.41303792	         -1.22158696	          5.54892352	          0.01673925	          0.93048678	         -0.01071565	         31.89666850	         -1.06840120	         -9.17443986	        -11.32852428	         -0.18539472	          0.22537545	        -11.22035739	         -1.52884817	         -8.13088274	        -11.98847520	          7.26689717	         34.88880206	         -5.49165791	          0.27544169	         -8.26822736	          0.17065571	          0.15240899	          0.00999999	          0.00999999	          0.40070840	          0.05436103	          0.05211358	          0.07721478	          0.10047098	          0.01000001	          0.02151582	          0.01000009	          0.01749354	          0.50902081	          0.16689798	          0.00999999	          0.00999999	          0.06304262	          0.01000001	          0.01000002	          0.16777409	          0.01451838	          0.46480710	          0.02107836	          0.01000001	          0.19799376	          0.33392980	          0.01749356	
          0.02459083	         -5.47464135	         -1.21344483	          5.53893282	          0.03395120	          0.92893052	         -0.00995356	         31.70264600	         -1.00944365	         -9.14182978	        -12.75506854	         -0.43429634	          0.19683936	        -11.54703020	         -1.74814654	         -8.53619838	        -13.11317872	          6.12942607	         36.75143498	         -5.12658280	          0.67932122	         -8.69529229	          0.14163199	          0.12648851	          0.00999999	          0.03283450	          0.33255918	          0.06069524	          0.04325054	          0.06408272	          0.08338369	          0.01000000	          0.03889755	          0.01204924	          0.01451838	          0.56161657	          0.15120300	          0.00999999	          0.00999999	          0.05232084	          0.01000001	          0.01000003	          0.17402942	          0.01204921	          0.46563247	          0.01749353	          0.00999999	          0.16432059	          0.30645583	          0.01451840	
          0.03688625	         -5.51624712	         -1.23399058	          5.49378684	          0.05139568	          0.92763981	         -0.00905611	         31.34185762	         -0.93133849	         -9.23131359	        -13.93574143	         -0.78112429	          0.18459599	        -11.65767091	         -2.04426338	         -8.95046556	        -14.67177600	          4.85995185	         38.62604938	         -4.75968088	          1.11335818	         -9.06814000	          0.15111852	          0.10497637	          0.00999999	          0.07823626	          0.27600029	          0.06735048	          0.03589485	          0.07492337	          0.06920247	          0.00999999	          0.08206014	          0.01000000	          0.01204921	          0.61865998	          0.15709129	          0.00999999	          0.00999999	          0.04342254	          0.01000000	          0.01000000	          0.18175998	          0.00999999	          0.40541015	          0.01451837	          0.00999999	          0.13637428	          0.26832642	          0.01204923	
          0.04918166	         -5.54021375	         -1.27758390	          5.41360852	          0.06882959	          0.92676412	         -0.00803063	         30.90305126	         -0.82977019	         -9.41574618	        -15.00966018	         -1.03820034	          0.14540072	        -11.47512920	         -2.42160871	         -9.37776390	        -16.75716759	          3.40580454	         40.46951041	         -4.41687980	          1.57152610	         -9.37920272	          0.14647537	          0.08712285	          0.00999999	          0.12830233	          0.23658432	          0.06805902	          0.02979016	          0.12902520	          0.05743308	          0.00999999	          0.13812439	          0.00999999	          0.00999999	          0.64759487	          0.20030358	          0.00999999	          0.00999999	          0.03603759	          0.01000000	          0.01000001	          0.15165702	          0.00999999	          0.33646129	          0.01204921	          0.00999999	          0.11318085	          0.22269165	          0.00999999	
          0.06147708	         -5.54969748	         -1.35528850	          5.30822453	          0.08602481	          0.92652596	         -0.00689069	         30.43985180	         -0.67942534	         -9.58501715	        -16.12339819	         -0.75631233	          0.13243710	        -10.94386553	         -2.90237374	         -9.81084389	        -19.40914400	          1.70972973	         42.12939105	         -4.11481000	          2.06227757	         -9.63335415	          0.13492292	          0.07230570	          0.00999999	          0.17646234	          0.19634803	          0.06895163	          0.02472370	          0.13872700	          0.04766533	          0.00999999	          0.21727238	          0.00999999	          0.00999999	          0.58797862	          0.24542961	          0.00999999	          0.00999999	          0.02990861	          0.04603375	          0.07985067	          0.12946174	          0.00999999	          0.27923870	          0.01000000	          0.00999999	          0.09393198	          0.18481807	          0.00999999	
          0.07377250	         -5.54976801	         -1.46265001	          5.18892774	          0.10279098	          0.92713846	         -0.00565967	         29.91642582	         -0.45869518	         -9.62855307	        -17.19722906	          0.15678778	          0.27126696	        -10.02846739	         -3.48928683	        -10.25111555	        -22.63002351	         -0.23122228	         43.26759689	         -3.86467983	          2.57500227	         -9.84127177	          0.12266670	          0.06000854	          0.00999999	          0.20228439	          0.18600175	          0.06870430	          0.02051891	          0.12053813	          0.03955880	          0.00999999	          0.26503334	          0.01000000	          0.00999999	          0.49366889	          0.26167900	          0.00999999	          0.00999999	          0.02482199	          0.15340916	          0.11419967	          0.11405439	          0.00999999	          0.23174805	          0.00999999	          0.00999999	          0.07795679	          0.15338571	          0.00999999	
          0.08606791	         -5.54508519	         -1.56041831	          5.05267790	          0.11902828	          0.92868472	         -0.00437523	         29.25255810	         -0.20015767	         -9.57855871	        -17.99681148	          1.25923997	          0.60253352	         -8.72704443	         -4.14673011	        -10.71579421	        -26.40848342	         -2.27515736	         43.31211282	         -3.67411440	          3.06480566	        -10.00063446	          0.12038628	          0.04980277	          0.00999999	          0.20739599	          0.18112851	          0.07229325	          0.01749353	          0.10003799	          0.03283096	          0.00999999	          0.27326669	          0.01000000	          0.00999999	          0.40970972	          0.25672869	          0.00999999	          0.00999999	          0.02060047	          0.21937636	          0.12451097	          0.09465702	          0.00999999	          0.19233423	          0.00999999	          0.00999999	          0.06469853	          0.12729912	          0.00999999	
